<svg xmlns="http://www.w3.org/2000/svg" xmlns:xlink="http://www.w3.org/1999/xlink" width="500" zoomAndPan="magnify" viewBox="0 0 375 374.999991" height="500" preserveAspectRatio="xMidYMid meet" version="1.0"><defs><g/><clipPath id="de95c13249"><path d="M 129 109 L 251 109 L 251 272.101562 L 129 272.101562 Z M 129 109 " clip-rule="nonzero"/></clipPath><clipPath id="cc52efc65f"><path d="M 94.203125 184.4375 L 100.832031 184.4375 L 100.832031 191.066406 L 94.203125 191.066406 Z M 94.203125 184.4375 " clip-rule="nonzero"/></clipPath><clipPath id="0e0c6619e6"><path d="M 97.519531 184.4375 C 95.6875 184.4375 94.203125 185.921875 94.203125 187.75 C 94.203125 189.582031 95.6875 191.066406 97.519531 191.066406 C 99.347656 191.066406 100.832031 189.582031 100.832031 187.75 C 100.832031 185.921875 99.347656 184.4375 97.519531 184.4375 Z M 97.519531 184.4375 " clip-rule="nonzero"/></clipPath><clipPath id="e170b748cd"><path d="M 274.167969 184.4375 L 280.796875 184.4375 L 280.796875 191.066406 L 274.167969 191.066406 Z M 274.167969 184.4375 " clip-rule="nonzero"/></clipPath><clipPath id="a820185302"><path d="M 277.480469 184.4375 C 275.652344 184.4375 274.167969 185.921875 274.167969 187.75 C 274.167969 189.582031 275.652344 191.066406 277.480469 191.066406 C 279.3125 191.066406 280.796875 189.582031 280.796875 187.75 C 280.796875 185.921875 279.3125 184.4375 277.480469 184.4375 Z M 277.480469 184.4375 " clip-rule="nonzero"/></clipPath></defs><rect x="-37.5" width="450" fill="#ffffff" y="-37.499999" height="449.999989" fill-opacity="1"/><rect x="-37.5" width="450" fill="#000000" y="-37.499999" height="449.999989" fill-opacity="1"/><g fill="#00f900" fill-opacity="1"><g transform="translate(53.229959, 139.821645)"><g><path d="M -13.359375 -35.578125 L -10.546875 -33.96875 L -14.875 -26.375 L 7.703125 -13.5 L 5.328125 -9.34375 L -17.25 -22.21875 L -21.578125 -14.625 L -24.390625 -16.234375 Z M -13.359375 -35.578125 "/></g></g></g><g fill="#00f900" fill-opacity="1"><g transform="translate(73.327313, 107.341805)"><g><path d="M 19.625 -19.40625 L 16.140625 -15.953125 L -4.65625 -26.203125 L 5.296875 -5.234375 L 1.78125 -1.75 L -11.46875 -29.71875 L -8.125 -33.03125 Z M 6.078125 -19.0625 L 9.171875 -17.59375 L 3.78125 -12.265625 L 2.296875 -15.328125 Z M 6.078125 -19.0625 "/></g></g></g><g fill="#00f900" fill-opacity="1"><g transform="translate(104.319132, 79.18244)"><g><path d="M 3.46875 -35.234375 L 7.71875 -37.5625 L 21.75 -11.90625 L 17.5 -9.578125 L 0.578125 -20.015625 L -3.796875 -28.03125 L 13.140625 -17.546875 Z M 3.203125 -1.75 L -10.828125 -27.40625 L -6.59375 -29.734375 L 7.4375 -4.078125 Z M 3.203125 -1.75 "/></g></g></g><g fill="#00f900" fill-opacity="1"><g transform="translate(140.768568, 61.49279)"><g><path d="M 10.515625 -28.15625 C 10.378906 -28.175781 10.203125 -28.226562 9.984375 -28.3125 C 9.773438 -28.394531 9.488281 -28.445312 9.125 -28.46875 C 8.757812 -28.5 8.3125 -28.488281 7.78125 -28.4375 C 7.25 -28.394531 6.597656 -28.242188 5.828125 -27.984375 L 4.84375 -31.875 C 5.96875 -32.132812 7.140625 -32.300781 8.359375 -32.375 C 9.585938 -32.445312 10.617188 -32.347656 11.453125 -32.078125 C 11.367188 -31.703125 11.273438 -31.289062 11.171875 -30.84375 C 11.078125 -30.394531 10.984375 -29.972656 10.890625 -29.578125 C 10.796875 -29.179688 10.710938 -28.851562 10.640625 -28.59375 C 10.578125 -28.332031 10.535156 -28.1875 10.515625 -28.15625 Z M -1.984375 -21.71875 C -2.265625 -22.832031 -2.320312 -23.890625 -2.15625 -24.890625 C -2 -25.890625 -1.679688 -26.8125 -1.203125 -27.65625 C -0.722656 -28.507812 -0.09375 -29.242188 0.6875 -29.859375 C 1.476562 -30.484375 2.34375 -30.984375 3.28125 -31.359375 L 4.3125 -27.328125 C 3.550781 -26.835938 2.988281 -26.171875 2.625 -25.328125 C 2.269531 -24.484375 2.179688 -23.707031 2.359375 -23 C 2.617188 -22 3.09375 -21.253906 3.78125 -20.765625 C 4.476562 -20.285156 5.300781 -19.921875 6.25 -19.671875 L 7.359375 -15.296875 C 6.398438 -15.472656 5.4375 -15.691406 4.46875 -15.953125 C 3.5 -16.210938 2.585938 -16.578125 1.734375 -17.046875 C 0.890625 -17.515625 0.132812 -18.113281 -0.53125 -18.84375 C -1.207031 -19.570312 -1.691406 -20.53125 -1.984375 -21.71875 Z M 2.609375 -6.203125 C 3.023438 -6.066406 3.53125 -5.972656 4.125 -5.921875 C 4.726562 -5.867188 5.34375 -5.832031 5.96875 -5.8125 C 6.601562 -5.800781 7.226562 -5.816406 7.84375 -5.859375 C 8.457031 -5.910156 9.019531 -6.003906 9.53125 -6.140625 L 9.65625 -6.171875 L 10.578125 -2.515625 L 10.5 -2.484375 C 9.882812 -2.335938 9.238281 -2.210938 8.5625 -2.109375 C 7.894531 -2.015625 7.207031 -1.957031 6.5 -1.9375 C 5.800781 -1.914062 5.113281 -1.960938 4.4375 -2.078125 C 3.769531 -2.191406 3.175781 -2.390625 2.65625 -2.671875 Z M 8.015625 -19.28125 C 8.960938 -19.113281 9.929688 -18.925781 10.921875 -18.71875 C 11.921875 -18.507812 12.851562 -18.179688 13.71875 -17.734375 C 14.59375 -17.296875 15.375 -16.679688 16.0625 -15.890625 C 16.757812 -15.109375 17.273438 -14.050781 17.609375 -12.71875 C 17.847656 -11.789062 17.90625 -10.847656 17.78125 -9.890625 C 17.65625 -8.929688 17.363281 -8.019531 16.90625 -7.15625 C 16.445312 -6.300781 15.820312 -5.515625 15.03125 -4.796875 C 14.238281 -4.078125 13.273438 -3.484375 12.140625 -3.015625 L 11.203125 -6.71875 C 13.160156 -7.757812 13.851562 -9.421875 13.28125 -11.703125 C 13.050781 -12.597656 12.566406 -13.269531 11.828125 -13.71875 C 11.085938 -14.164062 10.195312 -14.519531 9.15625 -14.78125 Z M 8.015625 -19.28125 "/></g></g></g><g fill="#00f900" fill-opacity="1"><g transform="translate(173.786386, 54.39611)"><g><path d="M 24.234375 -29.265625 L 24.234375 -26.015625 L 15.5 -26.015625 L 15.546875 -0.03125 L 10.75 -0.015625 L 10.703125 -26 L 1.96875 -25.984375 L 1.96875 -29.234375 Z M 24.234375 -29.265625 "/></g></g></g><g fill="#00f900" fill-opacity="1"><g transform="translate(211.959043, 55.701831)"><g><path d="M 26.59375 7.390625 L 21.859375 6.078125 L 20.4375 -17.0625 L 7.1875 2 L 2.40625 0.671875 L 20.09375 -24.734375 L 24.640625 -23.46875 Z M 19.578125 -4.1875 L 19.828125 -0.78125 L 12.53125 -2.8125 L 14.453125 -5.609375 Z M 19.578125 -4.1875 "/></g></g></g><g fill="#00f900" fill-opacity="1"><g transform="translate(251.764838, 68.502122)"><g><path d="M 23.453125 14.5625 L 19.28125 11.96875 L 24.390625 -10.640625 L 6.328125 3.9375 L 2.125 1.3125 L 26.21875 -18.09375 L 30.234375 -15.609375 Z M 19.953125 1.46875 L 19.25 4.8125 L 12.8125 0.8125 L 15.4375 -1.34375 Z M 19.953125 1.46875 "/></g></g></g><g fill="#00f900" fill-opacity="1"><g transform="translate(286.387186, 92.381222)"><g><path d="M 23.921875 -17.203125 L 27.234375 -13.65625 L 5.875 6.296875 L 2.5625 2.75 Z M 23.84375 6.234375 L 16.609375 -1.5 L 18.984375 -3.71875 L 26.21875 4.015625 Z M 36.421875 -3.828125 L 33.796875 -1.359375 L 25.71875 -10 L 28.34375 -12.46875 Z M 36.421875 -3.828125 "/></g></g></g><g fill="#00f900" fill-opacity="1"><g transform="translate(309.65301, 119.512771)"><g><path d="M 29.6875 -6.78125 L 7.3125 5.703125 L 13.859375 17.453125 L 10.703125 19.203125 L 1.796875 3.21875 L 27.328125 -11.015625 Z M 29.6875 -6.78125 "/></g></g></g><g fill="#00f900" fill-opacity="1"><g transform="translate(106.71375, 321.901932)"><g><path d="M 17.859375 -25.9375 L 9.546875 -0.78125 L 22.75 3.578125 L 21.578125 7.125 L 3.625 1.203125 L 13.109375 -27.5 Z M 17.859375 -25.9375 "/></g></g></g><g fill="#00f900" fill-opacity="1"><g transform="translate(149.000315, 333.999649)"><g><path d="M 28.390625 2.953125 L 23.34375 2.421875 L 17.890625 -20.90625 L 7.671875 0.796875 L 2.5625 0.265625 L 16.21875 -28.671875 L 21.078125 -28.171875 Z M 19.21875 -7.65625 L 20.078125 -4.234375 L 12.28125 -5.046875 L 13.765625 -8.21875 Z M 19.21875 -7.65625 "/></g></g></g><g fill="#00f900" fill-opacity="1"><g transform="translate(200.181804, 336.83891)"><g><path d="M 16.15625 -18 C 16.789062 -18 17.476562 -17.875 18.21875 -17.625 C 18.96875 -17.382812 19.6875 -17 20.375 -16.46875 C 21.0625 -15.945312 21.660156 -15.285156 22.171875 -14.484375 C 22.679688 -13.679688 23.003906 -12.722656 23.140625 -11.609375 C 23.296875 -10.253906 23.226562 -9.0625 22.9375 -8.03125 C 22.65625 -7 22.242188 -6.128906 21.703125 -5.421875 C 21.171875 -4.710938 20.566406 -4.128906 19.890625 -3.671875 C 19.222656 -3.222656 18.566406 -2.863281 17.921875 -2.59375 C 17.285156 -2.320312 16.710938 -2.132812 16.203125 -2.03125 C 15.691406 -1.925781 15.351562 -1.863281 15.1875 -1.84375 L 10.46875 -1.265625 L 10.03125 -4.84375 L 14.46875 -5.390625 C 15.90625 -5.554688 16.972656 -6.148438 17.671875 -7.171875 C 18.378906 -8.203125 18.640625 -9.488281 18.453125 -11.03125 C 18.273438 -12.5 17.703125 -13.679688 16.734375 -14.578125 C 15.773438 -15.484375 14.476562 -15.835938 12.84375 -15.640625 L 8.78125 -15.140625 L 8.390625 -18.453125 L 10.34375 -18.6875 C 10.9375 -18.757812 11.539062 -18.847656 12.15625 -18.953125 C 12.78125 -19.054688 13.347656 -19.273438 13.859375 -19.609375 C 14.367188 -19.953125 14.753906 -20.472656 15.015625 -21.171875 C 15.273438 -21.867188 15.332031 -22.828125 15.1875 -24.046875 C 15.132812 -24.523438 15.003906 -25.019531 14.796875 -25.53125 C 14.597656 -26.039062 14.265625 -26.488281 13.796875 -26.875 C 13.335938 -27.257812 12.710938 -27.539062 11.921875 -27.71875 C 11.128906 -27.90625 10.109375 -27.925781 8.859375 -27.78125 L 7.28125 -27.578125 L 6.828125 -31.28125 L 8.90625 -31.53125 C 10.175781 -31.6875 11.425781 -31.6875 12.65625 -31.53125 C 13.894531 -31.375 15.007812 -31.023438 16 -30.484375 C 17 -29.953125 17.832031 -29.195312 18.5 -28.21875 C 19.164062 -27.238281 19.585938 -26.03125 19.765625 -24.59375 C 19.867188 -23.738281 19.828125 -22.945312 19.640625 -22.21875 C 19.460938 -21.5 19.195312 -20.859375 18.84375 -20.296875 C 18.5 -19.734375 18.082031 -19.25 17.59375 -18.84375 C 17.113281 -18.4375 16.632812 -18.15625 16.15625 -18 Z M 0.265625 -30.484375 L 5.15625 -31.078125 L 8.796875 -1.0625 L 3.90625 -0.46875 Z M 0.265625 -30.484375 "/></g></g></g><g fill="#00f900" fill-opacity="1"><g transform="translate(246.799358, 328.895254)"><g><path d="M 8.640625 -29.828125 C 8.492188 -29.847656 8.3125 -29.894531 8.09375 -29.96875 C 7.875 -30.039062 7.570312 -30.078125 7.1875 -30.078125 C 6.8125 -30.078125 6.347656 -30.023438 5.796875 -29.921875 C 5.253906 -29.828125 4.59375 -29.625 3.8125 -29.3125 L 2.5 -33.234375 C 3.632812 -33.585938 4.832031 -33.851562 6.09375 -34.03125 C 7.351562 -34.207031 8.421875 -34.1875 9.296875 -33.96875 C 9.253906 -33.582031 9.195312 -33.148438 9.125 -32.671875 C 9.050781 -32.191406 8.984375 -31.742188 8.921875 -31.328125 C 8.859375 -30.921875 8.800781 -30.578125 8.75 -30.296875 C 8.695312 -30.023438 8.660156 -29.867188 8.640625 -29.828125 Z M -3.734375 -22.234375 C -4.109375 -23.378906 -4.253906 -24.472656 -4.171875 -25.515625 C -4.085938 -26.554688 -3.832031 -27.523438 -3.40625 -28.421875 C -2.976562 -29.328125 -2.378906 -30.128906 -1.609375 -30.828125 C -0.847656 -31.535156 0 -32.117188 0.9375 -32.578125 L 2.296875 -28.5 C 1.566406 -27.9375 1.050781 -27.207031 0.75 -26.3125 C 0.445312 -25.414062 0.414062 -24.609375 0.65625 -23.890625 C 0.988281 -22.878906 1.53125 -22.148438 2.28125 -21.703125 C 3.03125 -21.265625 3.90625 -20.945312 4.90625 -20.75 L 6.390625 -16.3125 C 5.390625 -16.445312 4.378906 -16.609375 3.359375 -16.796875 C 2.335938 -16.992188 1.375 -17.296875 0.46875 -17.703125 C -0.4375 -18.117188 -1.257812 -18.679688 -2 -19.390625 C -2.75 -20.097656 -3.328125 -21.046875 -3.734375 -22.234375 Z M 2.21875 -6.578125 C 2.644531 -6.492188 3.164062 -6.445312 3.78125 -6.4375 C 4.40625 -6.425781 5.039062 -6.4375 5.6875 -6.46875 C 6.34375 -6.507812 6.988281 -6.578125 7.625 -6.671875 C 8.257812 -6.765625 8.832031 -6.898438 9.34375 -7.078125 L 9.46875 -7.109375 L 10.703125 -3.40625 L 10.625 -3.390625 C 10 -3.179688 9.34375 -3 8.65625 -2.84375 C 7.976562 -2.6875 7.273438 -2.570312 6.546875 -2.5 C 5.828125 -2.425781 5.117188 -2.421875 4.421875 -2.484375 C 3.722656 -2.554688 3.085938 -2.71875 2.515625 -2.96875 Z M 6.75 -20.53125 C 7.75 -20.414062 8.765625 -20.285156 9.796875 -20.140625 C 10.835938 -20.003906 11.828125 -19.738281 12.765625 -19.34375 C 13.710938 -18.957031 14.566406 -18.382812 15.328125 -17.625 C 16.097656 -16.875 16.710938 -15.828125 17.171875 -14.484375 C 17.484375 -13.546875 17.609375 -12.578125 17.546875 -11.578125 C 17.484375 -10.585938 17.253906 -9.628906 16.859375 -8.703125 C 16.472656 -7.773438 15.894531 -6.90625 15.125 -6.09375 C 14.363281 -5.289062 13.410156 -4.613281 12.265625 -4.0625 L 11.015625 -7.796875 C 12.960938 -9.023438 13.550781 -10.796875 12.78125 -13.109375 C 12.476562 -14.015625 11.925781 -14.664062 11.125 -15.0625 C 10.320312 -15.457031 9.375 -15.765625 8.28125 -15.984375 Z M 6.75 -20.53125 "/></g></g></g><g clip-path="url(#de95c13249)"><path fill="#00f900" d="M 248.078125 133.363281 C 246.46875 132.460938 244.761719 132.441406 244.265625 133.316406 L 227.25 163.578125 C 226.484375 163.71875 225.429688 163.5 224.414062 162.929688 C 223.394531 162.355469 222.660156 161.566406 222.378906 160.839844 L 239.398438 130.582031 C 239.894531 129.703125 238.988281 128.253906 237.378906 127.347656 C 235.773438 126.441406 234.0625 126.421875 233.570312 127.304688 L 216.605469 157.464844 C 215.835938 157.671875 214.695312 157.464844 213.605469 156.851562 C 212.800781 156.398438 212.175781 155.808594 211.808594 155.226562 L 228.96875 124.714844 C 229.460938 123.835938 228.5625 122.390625 226.949219 121.480469 C 225.339844 120.574219 223.632812 120.554688 223.136719 121.4375 L 214.976562 135.941406 L 205.035156 153.625 L 204.136719 155.21875 C 199.964844 162.636719 201.09375 171.425781 206.417969 176.316406 L 187.074219 208.878906 L 186.167969 170.625 C 186.167969 170.363281 186.167969 170.105469 186.164062 169.851562 C 195.296875 167.527344 202.277344 154.894531 202.277344 139.652344 C 202.277344 122.761719 193.699219 109.066406 183.121094 109.066406 C 172.542969 109.066406 163.964844 122.761719 163.964844 139.652344 C 163.964844 154.894531 170.945312 167.527344 180.082031 169.851562 C 180.078125 170.105469 180.074219 170.363281 180.074219 170.625 L 179.210938 207.015625 C 161.75 172.777344 141.542969 132.695312 134.957031 117.804688 C 125.578125 96.597656 124.402344 170.5625 169.96875 203.703125 L 170.058594 203.621094 L 178.851562 222.25 L 178.839844 222.742188 L 156.128906 260.980469 C 154.648438 263.613281 155.578125 266.949219 158.210938 268.429688 C 160.847656 269.910156 164.183594 268.972656 165.664062 266.339844 L 178.375 242.433594 L 177.792969 266.957031 C 177.792969 269.902344 180.175781 272.289062 183.121094 272.289062 C 186.0625 272.289062 188.453125 269.902344 188.453125 266.957031 L 187.84375 241.296875 L 199.824219 266.671875 C 200.921875 268.871094 203.601562 269.757812 205.800781 268.65625 C 208 267.554688 208.886719 264.878906 207.789062 262.679688 C 207.789062 262.679688 199.296875 246.265625 188.03125 224.269531 L 211.886719 179.390625 C 218.828125 181.398438 226.921875 177.804688 231.097656 170.378906 L 231.996094 168.785156 L 241.9375 151.105469 L 250.09375 136.597656 C 250.589844 135.71875 249.6875 134.265625 248.078125 133.363281 " fill-opacity="1" fill-rule="nonzero"/></g><g clip-path="url(#cc52efc65f)"><g clip-path="url(#0e0c6619e6)"><path fill="#00f900" d="M 94.203125 184.4375 L 100.832031 184.4375 L 100.832031 191.066406 L 94.203125 191.066406 Z M 94.203125 184.4375 " fill-opacity="1" fill-rule="nonzero"/></g></g><g clip-path="url(#e170b748cd)"><g clip-path="url(#a820185302)"><path fill="#00f900" d="M 274.167969 184.4375 L 280.796875 184.4375 L 280.796875 191.066406 L 274.167969 191.066406 Z M 274.167969 184.4375 " fill-opacity="1" fill-rule="nonzero"/></g></g></svg>